<svg width="334" height="49" viewBox="0 0 334 49" fill="none" xmlns="http://www.w3.org/2000/svg">
<path d="M24.7931 2.89404L11.2344 23.7283H19.4435L28.982 9.17738L24.7931 2.89404Z" fill="#C3A78A"/>
<path d="M29.7497 10.5005L25.7812 16.6736L28.0962 20.2011L25.7812 23.5742L29.8599 29.6812L36.1432 20.0908L29.7497 10.5005Z" fill="#C3A78A"/>
<path d="M32.7368 27.9175L30.7526 31.004L32.7368 34.1688L37.3667 34.2008L41.3351 39.8227H31.2465L24.2488 29.1301L20.3906 35.0827L27.6661 46.1061H44.8262L48.831 39.7125L41.0396 27.9175H32.7368Z" fill="#C3A78A"/>
<path d="M8.683 27.9175H23.4466L19.39 34.2008H12.2248L8.47687 39.8227H18.6184L22.7918 46.1061H3.67618C3.67618 46.1061 1.55197 45.9837 0.538921 44.2321C-0.673652 42.1377 0.538921 40.3739 0.538921 40.3739L8.683 27.9175Z" fill="#C3A78A"/>
<path d="M54.3571 19.028C54.3571 14.42 58.1731 11.216 63.7171 11.216C69.0451 11.216 72.4291 14.168 72.5731 18.92H67.9651C67.8571 16.652 66.2371 15.32 63.6451 15.32C60.8011 15.32 58.9651 16.688 58.9651 18.884C58.9651 20.756 59.9731 21.8 62.1691 22.304L66.3091 23.204C70.8091 24.176 73.0051 26.48 73.0051 30.404C73.0051 35.3 69.1891 38.468 63.3931 38.468C57.7771 38.468 54.1051 35.48 53.9971 30.764H58.6051C58.6411 32.996 60.4411 34.328 63.3931 34.328C66.4531 34.328 68.3971 32.996 68.3971 30.8C68.3971 29.036 67.4971 27.992 65.3371 27.524L61.1611 26.588C56.6971 25.616 54.3571 23.06 54.3571 19.028ZM71.9982 15.932V11.684H92.0143V15.932H84.3103V38H79.7022V15.932H71.9982ZM109.361 38H93.0166V11.684H109.361V15.932H97.6246V22.7H108.137V26.768H97.6246V33.752H109.361V38ZM128.18 38H111.836V11.684H128.18V15.932H116.444V22.7H126.956V26.768H116.444V33.752H128.18V38ZM135.264 11.684V33.752H146.28V38H130.656V11.684H135.264ZM145.887 19.1C145.887 14.276 149.955 10.856 155.679 10.856C161.403 10.856 165.003 14.024 165.003 19.064H159.207C159.207 17.192 157.803 16.04 155.607 16.04C153.231 16.04 151.719 17.12 151.719 18.884C151.719 20.504 152.547 21.296 154.419 21.692L158.415 22.52C163.167 23.492 165.435 25.76 165.435 29.972C165.435 35.12 161.403 38.468 155.283 38.468C149.343 38.468 145.491 35.264 145.491 30.26H151.287C151.287 32.204 152.727 33.284 155.319 33.284C157.947 33.284 159.603 32.24 159.603 30.548C159.603 29.072 158.919 28.316 157.155 27.956L153.087 27.128C148.335 26.156 145.887 23.456 145.887 19.1ZM191.405 24.644C191.405 32.78 186.041 38.432 178.301 38.432C170.597 38.432 165.305 32.816 165.305 24.68C165.305 16.544 170.633 10.892 178.337 10.892C186.077 10.892 191.405 16.508 191.405 24.644ZM185.249 24.644C185.249 19.568 182.657 16.508 178.373 16.508C174.053 16.508 171.461 19.568 171.461 24.644C171.461 29.756 174.053 32.816 178.373 32.816C182.657 32.816 185.249 29.684 185.249 24.644ZM198.78 11.36V32.6H209.292V38H192.948V11.36H198.78ZM209.162 27.992V11.36H214.994V27.596C214.994 30.944 216.83 32.78 220.106 32.78C223.418 32.78 225.29 30.872 225.29 27.596V11.36H231.122V27.992C231.122 34.328 226.802 38.432 220.106 38.432C213.446 38.432 209.162 34.364 209.162 27.992ZM231.911 16.76V11.36H252.863V16.76H245.303V38H239.471V16.76H231.911ZM259.67 11.36V38H253.838V11.36H259.67ZM287.332 24.644C287.332 32.78 281.968 38.432 274.228 38.432C266.524 38.432 261.232 32.816 261.232 24.68C261.232 16.544 266.56 10.892 274.264 10.892C282.004 10.892 287.332 16.508 287.332 24.644ZM281.176 24.644C281.176 19.568 278.584 16.508 274.3 16.508C269.98 16.508 267.388 19.568 267.388 24.644C267.388 29.756 269.98 32.816 274.3 32.816C278.584 32.816 281.176 29.684 281.176 24.644ZM294.636 38H288.876V11.36H294.636L305.868 28.316V11.36H311.628V38H305.868L294.636 21.08V38ZM312.899 19.1C312.899 14.276 316.967 10.856 322.691 10.856C328.415 10.856 332.015 14.024 332.015 19.064H326.219C326.219 17.192 324.815 16.04 322.619 16.04C320.243 16.04 318.731 17.12 318.731 18.884C318.731 20.504 319.559 21.296 321.431 21.692L325.427 22.52C330.179 23.492 332.447 25.76 332.447 29.972C332.447 35.12 328.415 38.468 322.295 38.468C316.355 38.468 312.503 35.264 312.503 30.26H318.299C318.299 32.204 319.739 33.284 322.331 33.284C324.959 33.284 326.615 32.24 326.615 30.548C326.615 29.072 325.931 28.316 324.167 27.956L320.099 27.128C315.347 26.156 312.899 23.456 312.899 19.1Z" fill="#949697"/>
</svg>
